<mxfile host="app.diagrams.net" modified="2023-09-14T05:36:34.665Z" agent="Mozilla/5.0 (X11; Linux x86_64; rv:109.0) Gecko/20100101 Firefox/117.0" version="21.7.5" etag="j7SLlLdK8MTNslObYf9n" type="github">
  <diagram name="Page-1" id="A41Sm2gP48WwYxCH8jK3">
    <mxGraphModel>
      <root>
        <mxCell id="0" />
        <mxCell id="1" parent="0" />
      </root>
    </mxGraphModel>
  </diagram>
</mxfile>
